# xmcd CD Database Entry
#
# Track frame offsets:
# 150
# 42475
# 49777
# 82476
# 122031
# 159746
# 184091
# 217528
# 235683
#
# Disc length: 3646 seconds
#
# Revision: 8
# Processed by: cddbd v1.4PL0 Copyright (c) Steve Scherf et al.
# Submitted via: tcd 2.0b
#
DISCID=770e3c09
DTITLE=Dave Matthews and Tim Reynolds - Headwaters Forest Benefit (Dis
DTITLE=k 1)
DYEAR=1900
DGENRE=
TTITLE0=Two Step
TTITLE1=Dave Speak
TTITLE2=Crush
TTITLE3=The Stone > Cant Help Falling in Love
TTITLE4=All Along the Watchtower
TTITLE5=One Sweet World
TTITLE6=Lie in our Graves
TTITLE7=Bartender > On Bended Knee
TTITLE8=Dont Drink the Water
EXTD=
EXTT0=
EXTT1=
EXTT2=
EXTT3=
EXTT4=
EXTT5=
EXTT6=
EXTT7=
EXTT8=
PLAYORDER=
